<?xml version="1.0" encoding="UTF-8" standalone="no"?>
<svg
   xmlns:dc="http://purl.org/dc/elements/1.1/"
   xmlns:cc="http://creativecommons.org/ns#"
   xmlns:rdf="http://www.w3.org/1999/02/22-rdf-syntax-ns#"
   xmlns:svg="http://www.w3.org/2000/svg"
   xmlns="http://www.w3.org/2000/svg"
   xmlns:sodipodi="http://sodipodi.sourceforge.net/DTD/sodipodi-0.dtd"
   xmlns:inkscape="http://www.inkscape.org/namespaces/inkscape"
   version="1.0"
   width="500"
   height="45"
   viewBox="0 0 5000 450"
   preserveAspectRatio="xMidYMid meet"
   id="svg40"
   sodipodi:docname="example-select.svg"
   inkscape:version="1.0.1 (3bc2e813f5, 2020-09-07)">
  <metadata
     id="metadata46">
    <rdf:RDF>
      <cc:Work
         rdf:about="">
        <dc:format>image/svg+xml</dc:format>
        <dc:type
           rdf:resource="http://purl.org/dc/dcmitype/StillImage" />
        <dc:title />
      </cc:Work>
    </rdf:RDF>
  </metadata>
  <defs
     id="defs44" />
  <sodipodi:namedview
     pagecolor="#ffffff"
     bordercolor="#666666"
     borderopacity="1"
     objecttolerance="10"
     gridtolerance="10"
     guidetolerance="10"
     inkscape:pageopacity="0"
     inkscape:pageshadow="2"
     inkscape:window-width="1831"
     inkscape:window-height="1052"
     id="namedview42"
     showgrid="false"
     inkscape:zoom="1"
     inkscape:cx="450.56943"
     inkscape:cy="-80.025082"
     inkscape:window-x="-8"
     inkscape:window-y="-8"
     inkscape:window-maximized="1"
     inkscape:current-layer="svg40"
     inkscape:document-rotation="0" />
  <g
     id="layer102"
     fill="#087e9d"
     stroke="none"
     style="display:inline"
     inkscape:label="m"
     transform="matrix(-0.5,0,0,0.5,5000,0)">
    <path
       d="M 10000,900 9745,650 9490,900 9235,650 8980,900 8725,650 8470,900 8215,650 7960,900 7705,650 7450,900 7195,650 6940,900 6685,650 6430,900 6175,650 5920,900 5665,650 5410,900 5155,650 4900,900 4645,650 4390,900 4135,650 3880,900 3625,650 3370,900 3115,650 2860,900 2605,650 2350,900 2095,650 1840,900 920,0 0,900 Z"
       id="path32"
       style="display:inline;fill:#a3181e;fill-opacity:1"
       inkscape:label="mountains"
       sodipodi:nodetypes="cccccccccccccccccccccccccccccccccccc" />
    <path
       d="M 10000,900 9745,650 9490,900 9235,650 8980,900 8725,650 8470,900 8215,650 7960,900 7705,650 7450,900 7195,650 6940,900 6685,650 6430,900 6175,650 5920,900 5665,650 5410,900 5155,650 4900,900 4645,650 4390,900 4135,650 3880,900 3625,650 3370,900 3115,650 2860,900 2605,650 2350,900 2095,650 1840,900 c 0,0 5762.1091,0 8160,0 z"
       id="path887"
       style="display:none;fill:#097f9d;fill-opacity:1"
       inkscape:label="mountains_colored"
       sodipodi:nodetypes="cccccccccccccccccccccccccccccccccc" />
  </g>
  <g
     id="layer1"
     inkscape:label="s"
     style="display:inline"
     transform="matrix(-0.5,0,0,0.5,5000,0)">
    <path
       style="display:none;fill:none;stroke:#000000;stroke-width:10px;stroke-linecap:butt;stroke-linejoin:miter;stroke-opacity:1"
       d="M 920,750 1107.5,550 1295,750 1482.2222,550 920,0 357.77778,550 545,750 732.5,550 Z"
       id="path51"
       sodipodi:nodetypes="ccccccccc"
       inkscape:label="snow_org" />
    <path
       style="display:inline;fill:#fffdff;fill-opacity:1;stroke:none;stroke-width:9.33607px;stroke-linecap:butt;stroke-linejoin:miter;stroke-opacity:1"
       d="M 920,725.11946 1095.0513,538.39813 1270.1025,725.11946 1444.8944,538.39813 920,24.914458 395.10558,538.39813 569.8975,725.11946 744.94876,538.39813 Z"
       id="path62"
       sodipodi:nodetypes="ccccccccc"
       inkscape:label="snow" />
  </g>
</svg>
