<?xml version="1.0" encoding="UTF-8" standalone="no"?>
<svg
   xmlns:dc="http://purl.org/dc/elements/1.1/"
   xmlns:cc="http://creativecommons.org/ns#"
   xmlns:rdf="http://www.w3.org/1999/02/22-rdf-syntax-ns#"
   xmlns:svg="http://www.w3.org/2000/svg"
   xmlns="http://www.w3.org/2000/svg"
   xmlns:sodipodi="http://sodipodi.sourceforge.net/DTD/sodipodi-0.dtd"
   xmlns:inkscape="http://www.inkscape.org/namespaces/inkscape"
   version="1.0"
   width="416"
   height="86.12941"
   viewBox="0 0 4160 861.2941"
   preserveAspectRatio="xMidYMid meet"
   id="svg253"
   sodipodi:docname="title.svg"
   inkscape:version="1.0.1 (3bc2e813f5, 2020-09-07)">
  <metadata
     id="metadata259">
    <rdf:RDF>
      <cc:Work
         rdf:about="">
        <dc:format>image/svg+xml</dc:format>
        <dc:type
           rdf:resource="http://purl.org/dc/dcmitype/StillImage" />
        <dc:title />
      </cc:Work>
    </rdf:RDF>
  </metadata>
  <defs
     id="defs257">
    <filter
       inkscape:collect="always"
       style="color-interpolation-filters:sRGB"
       id="filter1086"
       x="-0.0039661196"
       width="1.0079322"
       y="-0.003295762"
       height="1.0065916">
      <feGaussianBlur
         inkscape:collect="always"
         stdDeviation="0.2315684"
         id="feGaussianBlur1088" />
    </filter>
    <clipPath
       clipPathUnits="userSpaceOnUse"
       id="clipPath1288">
      <path
         id="path1290"
         style="display:inline;opacity:1;mix-blend-mode:normal;fill:#000000;fill-opacity:1;stroke-width:1"
         inkscape:label="a1_white"
         d="m 2672.5,870 -415,155 -5,327.5 -25,187.5 582.5,35 -2.5,-417.5 z m -91.5039,420 4.0039,81.7578 -114.0039,68.2422 -59.0039,-91.9922 z"
         clip-path="none" />
    </clipPath>
    <clipPath
       clipPathUnits="userSpaceOnUse"
       id="clipPath1039">
      <path
         id="path1041"
         style="opacity:0.388514;stroke-width:1"
         d="M 5896.25,920 5380,951.25 5316.25,1185 5330,1551.25 5682.5,1655 5928.75,1435 Z m -368.2422,220 h 147.9883 l 20.5915,88.4124 -156.4975,-2.3223 z"
         sodipodi:nodetypes="cccccccccccc" />
    </clipPath>
    <clipPath
       clipPathUnits="userSpaceOnUse"
       id="clipPath494">
      <path
         id="path496"
         style="stroke-width:1"
         d="m 7143.5547,804.33594 -662.9297,97.22656 22.9883,931.6211 684.1211,-44.1992 z M 6878.0078,1129.0039 6920,1365.9961 6781.9922,1430 6713.0078,1220 6755,1135 Z"
         sodipodi:nodetypes="ccccccccccc" />
    </clipPath>
  </defs>
  <sodipodi:namedview
     pagecolor="#ffffff"
     bordercolor="#666666"
     borderopacity="1"
     objecttolerance="10"
     gridtolerance="10"
     guidetolerance="10"
     inkscape:pageopacity="0"
     inkscape:pageshadow="2"
     inkscape:window-width="1831"
     inkscape:window-height="1052"
     id="namedview255"
     showgrid="false"
     inkscape:zoom="0.99999999"
     inkscape:cx="215.84035"
     inkscape:cy="142.58463"
     inkscape:window-x="-8"
     inkscape:window-y="-8"
     inkscape:window-maximized="1"
     inkscape:current-layer="svg253"
     inkscape:document-rotation="0" />
  <g
     id="layer9"
     inkscape:label="n"
     sodipodi:insensitive="true"
     transform="matrix(0.5,0,0,0.5,-10,1.2940952)">
    <path
       d="m 8200,1530 c -0.9139,-129.1732 0,-227.3869 0,-366 -18.7418,-14.3518 -57,-42 -57,-42 l -123,81 v 327 h -140 v -510 c 41.6874,3.9388 98.2648,1.3463 140,0 v 60 l 166,-60 154,60 v 450 z"
       id="path28"
       inkscape:label="n_deepgreen"
       style="fill:#035c7d;fill-opacity:1"
       sodipodi:nodetypes="ccccccccccccc" />
    <path
       d="m 8200,1530 v -366 l -57,-42 -123,81 v 327 h -140 l 130,-73 c 0,0 -93.0611,-77.1277 -130,-109 v -203 l 98.25,-62.75 L 7880,1020 h 140 v 60 l -89.5,202.5 89.5,-79.5 c 0,0 -1.5495,-80.1412 0,-123 l 22.125,37.625 4.625,-47.25 L 8186,1020 l -26,66 180,-6 v 215 l -116,65 116,87 z M 8320,1263.1612 8200,1164 v 140.58 z"
       id="path81"
       inkscape:label="n_green"
       style="fill:#15809d;fill-opacity:1"
       sodipodi:nodetypes="ccccccccccccccccccccccccccccc" />
  </g>
  <g
     id="layer8"
     inkscape:label="u"
     sodipodi:insensitive="true"
     transform="matrix(0.5,0,0,0.5,-10,1.2940952)">
    <path
       d="m 7424.75,1530 -168.75,-37 -36,-59 v -414 h 140 v 365 l 28,30 h 111 l 36,-66 v -329 h 140 v 510 h -140 v -60 z"
       id="path26"
       inkscape:label="u_deepgreen"
       style="fill:#035c7d;fill-opacity:1"
       sodipodi:nodetypes="ccccccccccccccc" />
    <path
       d="m 7256,1493 104,-108 -140,49 v -414 l 140,141.36 -131.7678,165.8342 L 7360,1385 v -365 365 l 28,30 h 111 l 36,-66 c 0,0 0,-219.2906 0,-329 h 140 v 510 h -140 v -60 l -110.25,60 z m 168.75,37 74.25,-115 h -111 z m 175.25,-361 75,36 -110.125,127.375 L 7675,1373 l -105,79 105,78 v -360 z m 75,-149 h -140 v 80 z"
       id="path79"
       inkscape:label="u_green"
       style="fill:#15809d;fill-opacity:1"
       sodipodi:nodetypes="ccccccccccccccccccccccccccccccccccc" />
  </g>
  <g
     id="layer7"
     inkscape:label="p"
     sodipodi:insensitive="true"
     transform="matrix(0.5,0,0,0.5,-10,1.2940952)">
    <g
       id="g1019"
       clip-path="url(#clipPath494)">
      <path
         d="m 6580,1020 c 46.6667,0 140,0 140,0 v 42.981 l 57,-21.981 168,-33 92,97 45,176 c -16.0865,37.8729 -63,179 -63,179 l -163,80 -139,-60 4,240 h -141 c 0,0 0,-466.6667 0,-700 z"
         id="path12"
         inkscape:label="p_green"
         style="fill:#035c7d;fill-opacity:1"
         sodipodi:nodetypes="ccccccccccccc" />
      <path
         d="m 6580,1020 v 0 L 6713.955,1219.1161 6777,1041 6938.7868,1046.5996 7037,1105 l -139,15 184,161 -300.25,147.875 L 6856,1540 6920.2062,1368.7418 7019,1460 l -163,80 -139,-60 4,240 H 6580 L 6762.026,1367.9029 6580,1474.1612 Z m 133.955,199.1161 -105.5426,125.8579 153.6136,22.9289 z"
         id="path69"
         inkscape:label="p_lightgreen"
         style="fill:#15809d;fill-opacity:1"
         sodipodi:nodetypes="ccccccccccccccccccccccc" />
    </g>
  </g>
  <g
     id="layer5"
     inkscape:label="Y"
     sodipodi:insensitive="true"
     transform="matrix(0.5,0,0,0.5,-10,1.2940952)">
    <path
       d="M 4988,1238 4738,830 h 170 l 160,263.5 160,-263.5 h 170 l -250,404 v 296 h -160 z"
       id="path34"
       inkscape:label="Y_green"
       style="fill:#035c7d;fill-opacity:1"
       sodipodi:nodetypes="cccccccccc" />
    <path
       d="M 4988,1238 4738,830 h 171 l 1,190 66.3033,-76.18718 L 5068,1093.5 5228,830 l 0.25,264.5 -135.25,17.5 55,122 v 296 h -160 z m 107,241 -107,-33.94 V 1530 Z m 26.25,-241 H 4988 v 174.3661 z M 5038,1084 4893.5225,1082.75 4988,1238 Z"
       id="path87"
       inkscape:label="Y_lightgreen"
       style="fill:#15809d;fill-opacity:1"
       sodipodi:nodetypes="ccccccccccccccccccccccccc" />
  </g>
  <g
     id="layer6"
     inkscape:label="e1"
     sodipodi:insensitive="true"
     transform="matrix(0.5,0,0,0.5,-10,1.2940952)">
    <g
       id="g987"
       inkscape:label="e_lightgreen"
       style="fill:#15809d;fill-opacity:1"
       clip-path="url(#clipPath1039)">
      <path
         d="M 5635.9467,1520.6624 5442,1485 l -83,-215 33,-136 108,-112 115,-13 c 0,0 114.5391,52.9421 172,79 l 43.5,116 4.5,109 -325,8 60,104 112.3033,-6.3223 16.9467,-54.9277 118.75,30.25 -56,92 z"
         id="path22"
         inkscape:label="e_green"
         style="fill:#035c7d;fill-opacity:1"
         sodipodi:nodetypes="cccccccccccccccc" />
      <path
         d="m 5442,1485 -83,-215 127.8388,17.1421 L 5392,1134 l 108,-112 28,98 87,-111 v 0 l 70.9961,109.75 L 5787,1088 l 43.5,116 -76.5,47 81,62 v 0 l -325,8 z m 254.5876,-256.5876 -156.4975,-2.3223 64.8909,63.8198 z"
         id="path93"
         inkscape:label="e1_lightgreen"
         style="fill:#15809d;fill-opacity:1"
         sodipodi:nodetypes="cccccccccccccccccccc" />
      <path
         d="M 5762,1486 5699.25,1363.75 5818,1394 Z"
         id="path99"
         style="fill:#15809d;fill-opacity:1"
         sodipodi:nodetypes="cccc" />
      <path
         d="m 5570,1425 112.3033,-6.3223 -46.3566,101.9847 z"
         id="path89"
         inkscape:label="path89"
         style="fill:#15809d;fill-opacity:1"
         sodipodi:nodetypes="cccc" />
    </g>
  </g>
  <g
     id="g467"
     inkscape:label="e2"
     sodipodi:insensitive="true"
     transform="matrix(0.5,0,0,0.5,-10,1.2940952)">
    <g
       id="g465"
       inkscape:label="e_lightgreen"
       style="fill:#15809d;fill-opacity:1"
       clip-path="url(#clipPath1039)"
       transform="translate(584.9922)">
      <path
         d="M 5635.9467,1520.6624 5442,1485 l -83,-215 33,-136 108,-112 115,-13 c 0,0 114.5391,52.9421 172,79 l 43.5,116 4.5,109 -325,8 60,104 112.3033,-6.3223 16.9467,-54.9277 118.75,30.25 -56,92 z"
         id="path457"
         inkscape:label="e_green"
         style="fill:#035c7d;fill-opacity:1"
         sodipodi:nodetypes="cccccccccccccccc" />
      <path
         d="m 5442,1485 -83,-215 127.8388,17.1421 L 5392,1134 l 108,-112 28,98 87,-111 v 0 l 70.9961,109.75 L 5787,1088 l 43.5,116 -76.5,47 81,62 v 0 l -325,8 z m 254.5876,-256.5876 -156.4975,-2.3223 64.8909,63.8198 z"
         id="path459"
         inkscape:label="e1_lightgreen"
         style="fill:#15809d;fill-opacity:1"
         sodipodi:nodetypes="cccccccccccccccccccc" />
      <path
         d="M 5762,1486 5699.25,1363.75 5818,1394 Z"
         id="path461"
         style="fill:#15809d;fill-opacity:1"
         sodipodi:nodetypes="cccc" />
      <path
         d="m 5570,1425 112.3033,-6.3223 -46.3566,101.9847 z"
         id="path463"
         inkscape:label="path89"
         style="fill:#15809d;fill-opacity:1"
         sodipodi:nodetypes="cccc" />
    </g>
  </g>
  <g
     id="layer4"
     inkscape:label="f"
     sodipodi:insensitive="true"
     transform="matrix(0.5,0,0,0.5,-10,1.2940952)">
    <path
       d="m 3300,1130 h -70 v -110 h 70 c 0,0 -2.515,-92.64867 0,-139.19 l 80,-67.81 180,16 v 111 h -120 v 80 h 100 v 110 h -100 v 400 h -70 -70 z"
       id="path32"
       sodipodi:nodetypes="ccccccccccccccccc"
       inkscape:label="f_green"
       style="fill:#035c7d;fill-opacity:1" />
    <path
       d="m 3300,1330 v -200 h -70 v -55 -55 h 70 V 880.81 l 83.3934,-48.37155 94.1456,-10.67418 L 3560,829 3559.5,861.125 3440,940 3346.375,900.75 c 0,0 71.4987,74.88814 93.625,94.25 l -40,25 h -100 v 51.75 l 100,-51.75 40,-25 v 25 92 l 100,-92 v 110 h -50 -50 v 200 200 h -140 z m 140,-106.46 -100,-73.54 100,180 -100,-42 100,153.34 -100,88.66 h 100 z M 3230,1075 v 55 h 70 z"
       id="path85"
       inkscape:label="f_lightgreen"
       style="fill:#15829d;fill-opacity:1"
       sodipodi:nodetypes="ccccccccccccccccccccccccccccccccccccccccc" />
  </g>
  <g
     id="layer3"
     inkscape:label="i"
     sodipodi:insensitive="true"
     transform="matrix(0.5,0,0,0.5,-10,1.2940952)">
    <path
       d="M 2918,955 V 825 h 142 v 130 z"
       id="path38"
       sodipodi:nodetypes="ccccc"
       inkscape:label="ii_blue"
       style="fill:#035c7d;fill-opacity:1" />
    <path
       d="m 2915,1025 h 145 v 505 h -75 -70 z"
       id="path30"
       sodipodi:nodetypes="cccccc"
       inkscape:label="i_blue"
       style="fill:#035c7d;fill-opacity:1" />
    <path
       d="M 2918,955 V 825 h 142 L 3010.125,843.875 3041.25,872.5 2955,923.875 3060,955 Z"
       id="path103"
       inkscape:label="ii_lightblue"
       style="fill:#15809d;fill-opacity:1"
       sodipodi:nodetypes="cccccccc" />
    <path
       d="m 2915,1025 h 145 v 505 H 2915 Z M 3058.026,1374.4264 2933,1294 3060,1530 Z M 3049,1127 l -134,-102 0.8839,236.2323 z"
       id="path83"
       sodipodi:nodetypes="ccccccccccccc"
       style="display:inline;fill:#15809d;fill-opacity:1"
       inkscape:label="i_lightblue" />
  </g>
  <g
     id="layer2"
     inkscape:label="a1"
     sodipodi:insensitive="true"
     transform="matrix(0.5,0,0,0.5,-10,1.2940952)">
    <g
       id="g1278"
       clip-path="url(#clipPath1288)"
       inkscape:label="g1278"
       style="display:inline">
      <path
         d="m 2360,1513 -82,-83 34,-132 168.1627,-62.2901 109.9856,-52.1876 L 2564,1118 c -43.0166,9.1802 -86.4214,17.2187 -127.6192,33.0172 L 2420,1175 2290,1153 2346.1537,1065.7438 2440,1010 2589.0121,1014.7729 2707,1069 l 15.0004,91.2493 3.7921,44.6763 10.1364,240.0934 16.3836,80.5223 L 2615,1527 2595.3463,1480.7788 2441,1539 Z"
         id="path16"
         style="display:inline;mix-blend-mode:normal;fill:#035c7d;fill-opacity:1"
         inkscape:label="a1_blue"
         sodipodi:nodetypes="ccccccccccccccccccccc"
         clip-path="none" />
      <path
         d="m 2360,1513 31,-156 -113,75 34,-134 126,29 42.1627,-91.2901 109.9856,-52.1876 L 2564,1118 2436.3808,1151.0172 2420,1175 c 0,0 -130,-17 -130,-22 l 56.1537,-87.2562 L 2414,1150 l 26,-140 149.0121,4.7729 132.9883,145.4764 3.7921,44.6763 c 0,0 3.8876,168.4201 10.1364,240.0934 L 2752,1525 l -137,2 62,-16 -81.6537,-30.2212 -95.1997,36.0137 L 2396,1512 l 45,27 z M 2602.361,1456.3393 2680,1429 2585,1371.75 Z M 2611,1285 l 124.9289,160.019 -10.1364,-240.0934 z m -20.8517,-101.4777 -109.9856,52.1876 108.1054,14.8028 z M 2589.0121,1014.7729 2440,1010 l 110,90 z"
         id="path73"
         style="display:inline;mix-blend-mode:normal;fill:#15809d;fill-opacity:1"
         inkscape:label="a1_lightblue"
         sodipodi:nodetypes="cccccccccccccccccccccccccccccccccccccccccc"
         clip-path="none" />
    </g>
  </g>
  <g
     id="g1298"
     inkscape:label="a2"
     style="display:inline"
     sodipodi:insensitive="true"
     transform="matrix(0.5,0,0,0.5,-10,1.2940952)">
    <g
       id="g1296"
       clip-path="url(#clipPath1288)"
       inkscape:label="g1278"
       style="display:inline"
       transform="translate(1380)">
      <path
         d="m 2360,1513 -82,-83 34,-132 168.1627,-62.2901 109.9856,-52.1876 L 2564,1118 c -43.0166,9.1802 -86.4214,17.2187 -127.6192,33.0172 L 2420,1175 2290,1153 2346.1537,1065.7438 2440,1010 2589.0121,1014.7729 2707,1069 l 15.0004,91.2493 3.7921,44.6763 10.1364,240.0934 16.3836,80.5223 L 2615,1527 2595.3463,1480.7788 2441,1539 Z"
         id="path1292"
         style="display:inline;mix-blend-mode:normal;fill:#035c7d;fill-opacity:1"
         inkscape:label="a1_blue"
         sodipodi:nodetypes="ccccccccccccccccccccc"
         clip-path="none" />
      <path
         d="m 2360,1513 31,-156 -113,75 34,-134 126,29 42.1627,-91.2901 109.9856,-52.1876 L 2564,1118 2436.3808,1151.0172 2420,1175 c 0,0 -130,-17 -130,-22 l 56.1537,-87.2562 L 2414,1150 l 26,-140 149.0121,4.7729 132.9883,145.4764 3.7921,44.6763 c 0,0 3.8876,168.4201 10.1364,240.0934 L 2752,1525 l -137,2 62,-16 -81.6537,-30.2212 -95.1997,36.0137 L 2396,1512 l 45,27 z M 2602.361,1456.3393 2680,1429 2585,1371.75 Z M 2611,1285 l 124.9289,160.019 -10.1364,-240.0934 z m -20.8517,-101.4777 -109.9856,52.1876 108.1054,14.8028 z M 2589.0121,1014.7729 2440,1010 l 110,90 z"
         id="path1294"
         style="display:inline;mix-blend-mode:normal;fill:#15809d;fill-opacity:1"
         inkscape:label="a1_lightblue"
         sodipodi:nodetypes="cccccccccccccccccccccccccccccccccccccccccc"
         clip-path="none" />
    </g>
  </g>
  <g
     id="g1306"
     inkscape:label="a3"
     style="display:inline"
     sodipodi:insensitive="true"
     transform="matrix(0.5,0,0,0.5,-10,1.2940952)">
    <g
       id="g1304"
       clip-path="url(#clipPath1288)"
       inkscape:label="g1278"
       style="display:inline"
       transform="translate(2000)">
      <path
         d="m 2360,1513 -82,-83 34,-132 168.1627,-62.2901 109.9856,-52.1876 L 2564,1118 c -43.0166,9.1802 -86.4214,17.2187 -127.6192,33.0172 L 2420,1175 2290,1153 2346.1537,1065.7438 2440,1010 2589.0121,1014.7729 2707,1069 l 15.0004,91.2493 3.7921,44.6763 10.1364,240.0934 16.3836,80.5223 L 2615,1527 2595.3463,1480.7788 2441,1539 Z"
         id="path1300"
         style="display:inline;mix-blend-mode:normal;fill:#035c7d;fill-opacity:1"
         inkscape:label="a1_blue"
         sodipodi:nodetypes="ccccccccccccccccccccc"
         clip-path="none" />
      <path
         d="m 2360,1513 31,-156 -113,75 34,-134 126,29 42.1627,-91.2901 109.9856,-52.1876 L 2564,1118 2436.3808,1151.0172 2420,1175 c 0,0 -130,-17 -130,-22 l 56.1537,-87.2562 L 2414,1150 l 26,-140 149.0121,4.7729 132.9883,145.4764 3.7921,44.6763 c 0,0 3.8876,168.4201 10.1364,240.0934 L 2752,1525 l -137,2 62,-16 -81.6537,-30.2212 -95.1997,36.0137 L 2396,1512 l 45,27 z M 2602.361,1456.3393 2680,1429 2585,1371.75 Z M 2611,1285 l 124.9289,160.019 -10.1364,-240.0934 z m -20.8517,-101.4777 -109.9856,52.1876 108.1054,14.8028 z M 2589.0121,1014.7729 2440,1010 l 110,90 z"
         id="path1302"
         style="display:inline;mix-blend-mode:normal;fill:#15809d;fill-opacity:1"
         inkscape:label="a1_lightblue"
         sodipodi:nodetypes="cccccccccccccccccccccccccccccccccccccccccc"
         clip-path="none" />
    </g>
  </g>
  <g
     id="layer1"
     inkscape:label="G"
     style="display:inline"
     sodipodi:insensitive="true"
     transform="matrix(0.5,0,0,0.5,-10,1.2940952)">
    <path
       d="M 1537.121,1373.2247 1503,1089 l 211,-260 314,23 c 0,0 78.5002,106.52786 112,163 0,5 -94,27 -145,36 v 0 l -142,-105 -213,274 c 23.0522,49.799 69.7632,145.0543 69.7632,145.0543 l 156.7801,38.3752 L 1995,1365 2154.2736,1263.5637 1850,1148 l 303,7 1.2736,108.5637 -0.2291,174.153 L 2042,1480 l -212,51 z"
       id="path14"
       style="display:inline;fill:#035c7d;fill-opacity:1"
       sodipodi:nodetypes="cccccccccccccccccccc"
       inkscape:label="G_deepblue" />
    <path
       d="M 1830,1531 1537.121,1373.2247 1640,1220 l -137,-131 211,-260 314,23 -33,199 -142,-105 -213,274 69.7632,145.0543 156.7801,38.3752 L 2042,1480 2154.0445,1437.7167 C 2154.0445,1437.7167 2012,1369 1995,1365 l 159.2736,-101.4363 -0.2291,174.153 L 2042,1480 Z"
       id="path71"
       sodipodi:nodetypes="cccccccccccccccccc"
       inkscape:label="G_lightblue"
       style="fill:#15809d;fill-opacity:1" />
    <path
       d="M 1537.121,1373.2247 1640,1220 l 69.7632,145.0543 z"
       id="path198"
       inkscape:label="G_yellow"
       style="fill:#f9dd5a;fill-opacity:1;filter:url(#filter1086)"
       sodipodi:nodetypes="cccc" />
    <path
       d="m 1640,1220 74,-391 139,117 -213,274 69.7632,145.0543 156.7801,38.3752 L 1995,1365 l 6,-95 h -161 l 10,-122 304.2736,115.5637 L 1995,1365 2042,1480 1866.5433,1403.4295 1830,1531 1709.7632,1365.0543 Z"
       id="path113"
       sodipodi:nodetypes="ccccccccccccccccc"
       inkscape:label="G_red"
       style="fill:#fa3949;fill-opacity:1;stroke:none;stroke-opacity:1" />
  </g>
  <g
     id="layer111"
     fill="#f9dd5a"
     stroke="none"
     style="display:inline"
     inkscape:label="Gai"
     sodipodi:insensitive="true"
     transform="matrix(0.5,0,0,0.5,-10,1.2940952)">
    <path
       d="M 317.03084,885.24587 168.23553,1014.6656 272,606 500,501 707,384 l -34,111 -173,6 10.38999,181.03243 z"
       id="path36"
       sodipodi:nodetypes="ccccccccc"
       inkscape:label="Gai_green"
       style="fill:#035c7d;fill-opacity:1" />
    <g
       id="layer102"
       fill="#046c62"
       stroke="none"
       style="display:inline"
       inkscape:label="Gai_green">
      <path
         d="M 452,1415 170,1015 c 0,0 23,-105 51,-212 27,-107 51,-197 51,-197 l 238.38999,76.03243 60.81153,79.99482 z"
         id="path9"
         sodipodi:nodetypes="ccccccc" />
    </g>
    <g
       id="layer101"
       fill="#542708"
       stroke="none"
       style="display:inline"
       inkscape:label="Gai_brown">
      <path
         d="M 902.43937,1495.9462 864.97558,1325.994 1649.9381,1600.7678 Z"
         id="path2"
         sodipodi:nodetypes="cccc" />
      <path
         d="m 734,754 c 2,-65 5,-246 5,-401 1,-156 4,-283 9,-283 4,1 32,42 63,93 l 57,92 -62,302 c -34,166 -65,305 -69,309 -4,4 -5,-46 -3,-112 z"
         id="path4"
         style="display:none" />
      <path
         d="m 840,846 c 0,-4 9,-19 19,-34 10,-15 90,-142 176,-282 87,-140 186,-301 221,-358 35,-57 64,-108 64,-113 0,-5 35.5232,-13.632214 40.5232,-13.632214 11,0 12,310.000004 2,347.000004 C 1355.5232,415.36779 840,863 840,846 Z"
         id="path6"
         sodipodi:nodetypes="sscssscs"
         style="display:none" />
    </g>
    <path
       d="M 20,573 280,380 500,501 272,606 Z"
       id="path115"
       sodipodi:nodetypes="ccccc"
       inkscape:label="Gai_red"
       style="fill:#fa3949;fill-opacity:1" />
    <g
       id="layer105"
       fill="#6a4e4c"
       stroke="none"
       style="display:inline"
       inkscape:label="Gai_lightbrown">
      <path
         d="m 1624,1591 c 4,-5 -13,-7 -36,-5 l -43,3 30,-8 c 19,-6 23,-9 11,-10 -11,0 -17,-3 -14,-6 7,-7 108,18 108,27 0,5 -14,8 -31,8 -16,0 -28,-4 -25,-9 z"
         id="path48"
         style="display:none" />
      <path
         d="m 1715,1479 c -153,-79 -175,-95 -174,-122 1,-18 2,-19 6,-4 l 5,18 14,-18 c 7,-10 14,-26 14,-35 0,-10 5,-18 10,-18 6,0 10,-9 10,-20 0,-11 4,-20 9,-20 11,0 21,-35 12,-46 -3,-5 -29,-28 -58,-52 l -52,-42 -4,27 c -2,17 -4,11 -4,-15 v -43 l 79,-97 c 44,-53 84,-96 89,-94 6,1 8,-2 5,-7 -4,-5 4,-21 16,-35 l 23,-25 125,9 c 69,5 139,10 156,10 25,0 36,8 63,48 l 33,47 -29,-34 -30,-34 -6,17 c -4,10 -7,35 -7,56 0,21 -4,50 -10,64 -7,20 -6,26 8,29 13,4 12,5 -4,6 -11,0 -54,-24 -94,-54 -40,-30 -75,-55 -76,-55 -2,0 -47,61 -100,135 -53,74 -100,132 -106,129 -7,-4 -7,0 0,12 5,11 23,49 41,86 l 31,67 53,15 c 94,27 101,27 161,6 41,-14 62,-17 66,-9 4,5 8,-17 9,-50 l 2,-61 h -81 -80 v -60 c 0,-41 4,-60 13,-60 76,-4 294,3 299,8 4,4 -52,6 -123,4 -90,-2 -129,0 -124,7 3,6 14,11 24,11 9,0 21,4 27,8 5,5 29,15 54,22 25,8 50,17 55,20 13,9 67,24 80,22 6,-1 10,34 9,91 l -1,92 -48,32 c -34,22 -72,36 -134,48 -47,9 -97,18 -111,21 -19,4 -59,-12 -145,-57 z m 371,-10 c 41,-25 43,-45 7,-52 -16,-4 -43,-9 -61,-13 l -33,-6 23,45 c 13,26 25,47 27,47 2,0 19,-9 37,-21 z"
         id="path50"
         style="display:none" />
      <path
         d="m 1350,1495 c -36,-13 -60,-24 -54,-24 5,-1 41,10 80,23 38,14 62,24 54,24 -8,0 -44,-10 -80,-23 z"
         id="path52"
         style="display:none" />
      <path
         d="M 452,1415 571.20152,762.02725 832,1048 l 70.43937,447.9462 z"
         id="path54"
         sodipodi:nodetypes="ccccc" />
      <path
         d="m 1562.2452,708.08494 -94.0447,154.58353 c 0,0 -348.8445,44.96624 -523.2005,66.33153 z"
         id="path56"
         sodipodi:nodetypes="cccc" />
      <path
         d="M 1590.5749,379.90344 1529,649 895.67867,877.95753 Z"
         id="path58"
         sodipodi:nodetypes="cccc" />
      <path
         d="M 751,70 868,255 746.74595,863.43504 Z"
         id="path62"
         sodipodi:nodetypes="cccc" />
      <path
         d="M 790,847 1030.3407,-2.5881904 1122.0278,252.6024 Z"
         id="path64"
         sodipodi:nodetypes="cccc" />
      <path
         d="M 840,846 1346.8678,58.447913 C 1358.8678,58.447913 1329,416 1329,416 Z"
         id="path66"
         sodipodi:nodetypes="cccc" />
    </g>
    <g
       id="layer104"
       fill="#109161"
       stroke="none"
       inkscape:label="Gai_lightgreen">
      <path
         d="m 1715,1479 c -152,-79 -175,-95 -174,-122 0,-12 3,-16 6,-9 6,15 33,-3 33,-22 0,-18 24,-66 33,-66 4,0 7,-12 6,-27 0,-21 -13,-38 -54,-70 l -54,-42 -4,27 c -2,15 -4,9 -4,-16 v -43 l 79,-97 c 44,-53 84,-96 89,-94 6,1 8,-2 5,-7 -4,-5 4,-21 16,-35 l 23,-25 125,9 c 69,5 139,10 156,10 25,0 36,8 63,48 l 33,47 -29,-34 -30,-34 -6,17 c -4,10 -7,35 -7,56 0,21 -4,50 -10,64 -7,20 -6,26 8,29 13,4 12,5 -4,6 -11,0 -54,-24 -94,-54 -40,-30 -75,-55 -76,-55 -2,0 -47,61 -100,135 -53,74 -100,132 -106,129 -7,-4 -7,0 0,12 5,11 23,49 41,86 l 31,67 53,15 c 94,27 101,27 161,6 41,-14 62,-17 66,-9 4,5 8,-17 9,-50 l 2,-61 h -81 -80 v -60 c 0,-41 4,-60 13,-60 76,-4 294,3 299,8 4,4 -52,6 -123,4 -90,-2 -129,0 -124,7 3,6 14,11 24,11 9,0 21,4 27,8 5,5 29,15 54,22 25,8 50,17 55,20 13,9 67,24 80,22 6,-1 10,34 9,91 l -1,92 -48,32 c -34,22 -72,36 -134,48 -47,9 -97,18 -111,21 -19,4 -59,-12 -145,-57 z m 371,-10 c 41,-25 43,-45 7,-52 -16,-4 -43,-9 -61,-13 l -33,-6 23,45 c 13,26 25,47 27,47 2,0 19,-9 37,-21 z"
         id="path41"
         style="display:none" />
      <path
         d="M 452,1415 317.03084,885.24587 571.20152,762.02725 Z"
         id="path43"
         sodipodi:nodetypes="cccc" />
    </g>
    <path
       d="M 20,573 280,380 272,606 Z"
       id="path200"
       sodipodi:nodetypes="cccc"
       inkscape:label="Gai_yellow" />
    <g
       id="layer112"
       fill="#c2c4c4"
       stroke="none"
       style="display:inline"
       inkscape:label="Gai_white">
      <path
         d="M 571.20152,762.02725 832,1048 734,1455 Z"
         id="path207"
         sodipodi:nodetypes="cccc" />
      <path
         d="m 945,929 523,-188 -1,54 1.2005,67.66847 z"
         id="path227"
         sodipodi:nodetypes="ccccc" />
      <path
         d="m 895.67867,877.95753 524.69873,-377 L 1529,649 Z"
         id="path229"
         sodipodi:nodetypes="cccc" />
      <path
         d="m 790,847 170,-604 162.0278,9.6024 z"
         id="path231"
         sodipodi:nodetypes="cccc"
         style="display:inline" />
      <path
         d="m 841,845 365,-567 123,138 z"
         id="path233"
         sodipodi:nodetypes="cccc"
         style="display:inline" />
    </g>
    <path
       d="M 271.74251,604.45201 510.38999,682.03243 317.03084,885.24587 Z"
       id="path105"
       sodipodi:nodetypes="cccc"
       inkscape:label="Gai_lightblue"
       style="fill:#15809d;fill-opacity:1" />
  </g>
</svg>
