<?xml version="1.0" encoding="UTF-8" standalone="no"?>
<svg
   xmlns:dc="http://purl.org/dc/elements/1.1/"
   xmlns:cc="http://creativecommons.org/ns#"
   xmlns:rdf="http://www.w3.org/1999/02/22-rdf-syntax-ns#"
   xmlns:svg="http://www.w3.org/2000/svg"
   xmlns="http://www.w3.org/2000/svg"
   xmlns:sodipodi="http://sodipodi.sourceforge.net/DTD/sodipodi-0.dtd"
   xmlns:inkscape="http://www.inkscape.org/namespaces/inkscape"
   version="1.0"
   width="500.00296"
   height="45.000267"
   viewBox="0 0 5000.0296 450.00267"
   preserveAspectRatio="xMidYMid meet"
   id="svg40"
   sodipodi:docname="word-select.svg"
   inkscape:version="1.0.1 (3bc2e813f5, 2020-09-07)">
  <metadata
     id="metadata46">
    <rdf:RDF>
      <cc:Work
         rdf:about="">
        <dc:format>image/svg+xml</dc:format>
        <dc:type
           rdf:resource="http://purl.org/dc/dcmitype/StillImage" />
      </cc:Work>
    </rdf:RDF>
  </metadata>
  <defs
     id="defs44" />
  <sodipodi:namedview
     pagecolor="#ffffff"
     bordercolor="#666666"
     borderopacity="1"
     objecttolerance="10"
     gridtolerance="10"
     guidetolerance="10"
     inkscape:pageopacity="0"
     inkscape:pageshadow="2"
     inkscape:window-width="1831"
     inkscape:window-height="1052"
     id="namedview42"
     showgrid="false"
     inkscape:zoom="0.70710678"
     inkscape:cx="-259.21265"
     inkscape:cy="204.48236"
     inkscape:window-x="-8"
     inkscape:window-y="-8"
     inkscape:window-maximized="1"
     inkscape:current-layer="layer1"
     inkscape:document-rotation="0" />
  <g
     id="layer102"
     fill="#087e9d"
     stroke="none"
     style="display:inline"
     transform="scale(0.50000296)">
    <path
       d="M 10000,900 9745,650 9490,900 9235,650 8980,900 8725,650 8470,900 8215,650 7960,900 7705,650 7450,900 7195,650 6940,900 6685,650 6430,900 6175,650 5920,900 5665,650 5410,900 5155,650 4900,900 4645,650 4390,900 4135,650 3880,900 3625,650 3370,900 3115,650 2860,900 2605,650 2350,900 2095,650 1840,900 920,0 0,900 Z"
       id="path32"
       style="display:inline"
       inkscape:label="path32"
       sodipodi:nodetypes="cccccccccccccccccccccccccccccccccccc" />
  </g>
  <g
     inkscape:groupmode="layer"
     id="layer1"
     inkscape:label="Layer 1"
     transform="translate(0,3.4972947)">
    <path
       style="display:none;fill:none;stroke:#000000;stroke-width:5.00003px;stroke-linecap:butt;stroke-linejoin:miter;stroke-opacity:1"
       d="M 460.00272,371.50492 553.75328,271.50433 647.50383,371.50492 741.11549,271.50433 460.00272,-3.4972947 178.88995,271.50433 272.50161,371.50492 366.25217,271.50433 Z"
       id="path51"
       sodipodi:nodetypes="ccccccccc" />
    <path
       style="fill:#fffdff;fill-opacity:1;stroke:none;stroke-width:4.66807px;stroke-linecap:butt;stroke-linejoin:miter;stroke-opacity:1"
       d="m 460.00272,359.06458 87.52617,-93.36122 87.52612,93.36122 87.39647,-93.36122 L 460.00272,8.960008 197.55396,265.70336 l 87.39648,93.36122 87.52615,-93.36122 z"
       id="path62"
       sodipodi:nodetypes="ccccccccc" />
  </g>
</svg>
